<svg width="150" height="28" viewBox="0 0 150 28" fill="none" xmlns="http://www.w3.org/2000/svg">
<path fill-rule="evenodd" clip-rule="evenodd" d="M0.477242 16.7198C0.469406 16.7308 0.463138 16.7308 0.453735 16.7089L0.477242 16.7198Z" fill="#BF2328"/>
<path fill-rule="evenodd" clip-rule="evenodd" d="M19.4702 3.26959C14.9774 -1.14643 7.68579 -1.08062 3.27133 3.41533C-1.14626 7.91128 -1.08044 15.2013 3.41237 19.6158L11.5863 27.6455L19.6175 19.4732C24.0304 14.9757 23.9662 7.68405 19.4702 3.26959ZM18.6475 18.4091C14.7596 22.3707 8.33926 22.4271 4.37926 18.5392C0.417684 14.6513 0.362837 8.22783 4.25232 4.26625C8.14338 0.309379 14.5621 0.252965 18.5221 4.14402C22.4837 8.03037 22.537 14.4507 18.6475 18.4091ZM14.6311 14.8519L15.2422 15.6526C15.225 15.6824 15.2031 15.7122 15.1843 15.7435C15.1467 15.8094 15.1075 15.8407 15.0526 15.8877C15.0182 15.9175 14.9774 15.9473 14.9429 15.9786C14.8944 16.024 14.8865 16.0099 14.8285 16.0209C14.78 16.0303 14.7596 16.0287 14.7079 16.0475C14.6421 16.0695 14.6421 16.0475 14.5935 15.9943C14.5386 15.9269 14.5465 16.0287 14.5386 16.0726C14.5355 16.1196 14.5465 16.1745 14.5496 16.2199C14.5527 16.2638 14.5465 16.3108 14.5465 16.3547C14.5433 16.4001 14.4509 16.4581 14.4148 16.4816C14.3756 16.5098 14.3333 16.5271 14.2926 16.5459C14.2503 16.5631 14.2017 16.5474 14.1657 16.5459C14.1218 16.5396 14.0842 16.5333 14.045 16.5318C13.9839 16.5271 13.9557 16.5725 13.9196 16.6148C13.8695 16.6681 13.8695 16.7292 13.8679 16.7919C13.8632 16.8421 13.8585 16.8891 13.8491 16.9376C13.8381 16.9847 13.8115 17.0442 13.7958 17.085C13.7864 17.1226 13.799 17.1899 13.7833 17.2307C13.7692 17.2808 13.7034 17.3075 13.672 17.331C13.6093 17.3733 13.6219 17.3827 13.614 17.4454C13.5999 17.5175 13.614 17.5065 13.5514 17.5472C13.495 17.5864 13.5059 17.5723 13.495 17.6444C13.4824 17.6883 13.52 17.7541 13.5326 17.7917C13.5498 17.8387 13.4558 17.9092 13.4291 17.9374C13.3821 17.9892 13.332 18.033 13.2771 18.0769C13.2301 18.113 13.2583 18.1803 13.2662 18.2321C13.2771 18.29 13.2129 18.3543 13.1831 18.3903C13.1455 18.4326 13.1016 18.4655 13.0562 18.4938C13.028 18.5126 12.9857 18.6082 12.9637 18.6379C12.9418 18.6646 12.8744 18.6787 12.8399 18.6881C12.8117 18.7006 12.7976 18.7163 12.7772 18.7304L11.3073 17.6867L11.171 17.5284L11.0942 17.4031L11.2462 17.309L11.1412 17.0426L7.50558 15.0399C7.52595 15.0133 7.54946 14.8973 7.56826 14.8519C7.58237 14.8143 7.46954 14.7265 7.45073 14.7014C7.40372 14.6497 7.43193 14.6325 7.45387 14.5792C7.46013 14.5667 7.53222 14.504 7.54476 14.493C7.5855 14.457 7.57296 14.4444 7.62154 14.4178C7.64035 14.4178 7.7187 14.504 7.73124 14.5165C7.76415 14.551 7.80489 14.5243 7.82996 14.5291C7.84407 14.5291 7.93496 14.4413 7.94906 14.4288C7.9757 14.4068 8.03995 14.399 8.0713 14.3833C8.11204 14.3692 8.14651 14.3285 8.17472 14.3003C8.2092 14.2705 8.19196 14.1859 8.19196 14.1482C8.19196 14.0777 8.16532 14.0777 8.12144 14.0433C8.09167 14.015 7.99764 14.1169 7.97884 14.1326C7.93966 14.1655 7.91302 14.2188 7.87698 14.2564C7.82056 14.3128 7.8378 14.2893 7.76885 14.2517C7.71243 14.2188 7.714 14.2219 7.65132 14.2125C7.5855 14.1984 7.58863 14.1859 7.55729 14.1247C7.53849 14.0856 7.53535 14.0229 7.52752 13.9821C7.50715 13.9101 7.46954 13.9289 7.42409 13.9116C7.35201 13.8818 7.36768 13.8505 7.35827 13.7894C7.35357 13.7361 7.48364 13.5919 7.51185 13.5512C7.55573 13.4838 7.62154 13.4384 7.66699 13.3694C7.714 13.3067 7.74691 13.2456 7.77198 13.1688C7.79079 13.1202 7.8237 13.0701 7.8425 13.0215C7.86757 12.9682 7.89735 12.9573 7.93653 12.9306C7.96003 12.9134 8.02742 12.9024 8.06032 12.8852C8.13084 12.8507 8.09323 12.8288 8.10734 12.7849C8.12614 12.7175 8.08226 12.7175 8.15122 12.6439C8.18412 12.6078 8.24367 12.5874 8.27972 12.5655C8.3424 12.5279 8.3471 12.484 8.35964 12.4166C8.37844 12.3383 8.37531 12.2913 8.35964 12.2082C8.3471 12.1314 8.37374 12.1032 8.42545 12.0437C8.4662 11.9982 8.44112 11.934 8.43172 11.8791C8.42545 11.818 8.41448 11.7585 8.40195 11.6973C8.39411 11.6441 8.36434 11.5876 8.3471 11.5328C8.333 11.4842 8.32673 11.4325 8.32203 11.3824C8.31419 11.3385 8.32046 11.2852 8.31576 11.2429C8.30792 11.1818 8.26091 11.141 8.2233 11.0987C8.18726 11.058 8.14651 11.0251 8.1089 10.9875C8.06816 10.9483 8.07286 10.9169 8.07286 10.8605C8.06973 10.7978 8.04622 10.7775 8.00704 10.7352C7.97414 10.6928 7.93339 10.6584 7.89735 10.6192C7.87228 10.5972 7.88168 10.5158 7.87854 10.4844C7.87698 10.4609 7.92712 10.3747 7.93809 10.3481C7.9522 10.3152 7.91459 10.2603 7.90205 10.229C7.88011 10.1773 7.82996 10.182 7.79235 10.1663C7.75161 10.1538 7.71243 10.1224 7.67482 10.0958C7.63408 10.0691 7.5902 10.0597 7.54946 10.0268C7.48834 9.96728 7.53222 9.94848 7.55573 9.90147C7.59177 9.83879 7.5667 9.87169 7.56199 9.80901C7.55573 9.69148 7.44916 9.84505 7.51812 9.64133L7.8566 9.21509L9.40645 9.17591L9.59293 9.37336L10.4376 9.37807L10.6585 9.5097L11.5815 10.1491L11.6348 10.1976L11.9561 10.2337L12.1206 10.1757L12.4027 10.2995L13.122 10.439L13.4166 10.0676L13.4808 9.92341L14.3615 9.54104C14.3615 9.54104 14.6421 9.6664 14.6828 9.7761C14.7282 9.88423 15.3363 9.79334 15.3363 9.79334L15.5306 9.88893C15.5306 9.88893 15.037 10.6458 14.9539 10.7446C14.8693 10.8448 14.6609 10.9781 14.6609 10.9781L14.6311 14.8519ZM18.9045 10.4656C18.7838 10.6349 18.5942 10.7242 18.3999 10.7242C18.2761 10.7242 18.1507 10.6881 18.041 10.6098L11.3057 5.80669L4.84311 10.4139C4.56417 10.6145 4.18024 10.5487 3.97965 10.2713C3.78063 9.99079 3.84488 9.60686 4.12539 9.40627L10.9437 4.54049C11.1616 4.39005 11.4499 4.39005 11.663 4.54049L14.3208 6.43509V4.41983C14.3208 4.07977 14.6013 3.8024 14.9414 3.8024C15.283 3.8024 15.5604 4.07977 15.5604 4.41983V7.31892L18.7588 9.60216C19.0393 9.79961 19.1051 10.1867 18.9045 10.4656Z" fill="#B72327"/>
<path d="M37.1139 14.6168C37.1139 15.0854 37.0497 15.51 36.9212 15.8893C36.7927 16.2701 36.614 16.6054 36.3868 16.8969C36.1596 17.1884 35.8885 17.4407 35.5719 17.6507C35.2554 17.8607 34.9075 18.0346 34.5283 18.1694C34.1475 18.3057 33.7416 18.406 33.3106 18.4702C32.8797 18.5345 32.3986 18.5674 31.8689 18.5674H28.3649C28.1409 18.5674 27.9528 18.5016 27.7992 18.3684C27.6472 18.2368 27.5704 18.0205 27.5704 17.7212V6.23294C27.5704 5.93363 27.6472 5.71894 27.7992 5.58574C27.9512 5.45253 28.1409 5.38672 28.3649 5.38672H31.6746C32.4817 5.38672 33.1665 5.4541 33.7275 5.59044C34.2885 5.72677 34.7602 5.93206 35.1426 6.2063C35.5265 6.48054 35.8195 6.83 36.0233 7.24997C36.227 7.67152 36.3288 8.16671 36.3288 8.73713C36.3288 9.05681 36.2881 9.35612 36.2066 9.6382C36.1251 9.92027 36.006 10.1757 35.8509 10.4076C35.6942 10.638 35.503 10.8417 35.2758 11.0188C35.0485 11.1959 34.7884 11.3385 34.4969 11.4466C34.8699 11.514 35.2146 11.6331 35.5312 11.8023C35.8462 11.9716 36.122 12.191 36.3555 12.4589C36.589 12.7269 36.7755 13.0419 36.9102 13.4008C37.0466 13.7643 37.1139 14.1686 37.1139 14.6168ZM33.6507 9.06622C33.6507 8.80138 33.61 8.56318 33.5285 8.3532C33.447 8.14321 33.3247 7.96769 33.1618 7.82822C32.9988 7.68875 32.7935 7.58219 32.5459 7.50698C32.2983 7.43176 31.9677 7.39415 31.5524 7.39415H30.1984V10.8166H31.695C32.0821 10.8166 32.3908 10.7712 32.6211 10.6787C32.8515 10.5863 33.0442 10.4609 33.1962 10.3026C33.3483 10.1428 33.4626 9.95632 33.5379 9.74319C33.6131 9.5285 33.6507 9.30284 33.6507 9.06622ZM34.3339 14.7077C34.3339 14.4021 34.2822 14.1294 34.1819 13.8881C34.0816 13.6468 33.9312 13.4446 33.7338 13.2817C33.5363 13.1187 33.2856 12.9933 32.98 12.9056C32.6744 12.8178 32.2779 12.7739 31.789 12.7739H30.2V16.5224H32.1353C32.5083 16.5224 32.8233 16.4832 33.0771 16.4048C33.331 16.3265 33.552 16.2121 33.7385 16.0585C33.9249 15.9065 34.0707 15.7153 34.1757 15.4881C34.2807 15.2593 34.3339 15.0007 34.3339 14.7077Z" fill="#717274"/>
<path d="M47.7262 18.2211C47.7262 18.2885 47.709 18.348 47.676 18.3998C47.6416 18.4515 47.582 18.4938 47.4974 18.5267C47.4128 18.5612 47.2999 18.5862 47.162 18.6035C47.0226 18.6207 46.8486 18.6285 46.6371 18.6285C46.413 18.6285 46.2312 18.6191 46.0917 18.6035C45.9523 18.5862 45.8426 18.5612 45.7611 18.5267C45.6796 18.4922 45.6216 18.4499 45.5887 18.3998C45.5542 18.3496 45.537 18.2901 45.537 18.2211V17.1727C45.0339 17.7165 44.5231 18.1239 44.0044 18.395C43.4857 18.6662 42.9466 18.8025 42.3903 18.8025C41.765 18.8025 41.2416 18.7006 40.8169 18.4969C40.3923 18.2932 40.0491 18.0142 39.7889 17.6617C39.5272 17.3091 39.3407 16.9001 39.2279 16.4346C39.1167 15.9692 39.0602 15.391 39.0602 14.6983V9.13675C39.0602 9.06937 39.079 9.00981 39.1167 8.9581C39.1543 8.90639 39.2217 8.86408 39.3204 8.83117C39.4191 8.79669 39.5507 8.77162 39.7168 8.75438C39.883 8.73715 40.0882 8.72931 40.3327 8.72931C40.5834 8.72931 40.7903 8.73871 40.9533 8.75438C41.1162 8.77162 41.2463 8.79669 41.345 8.83117C41.4438 8.86564 41.5127 8.90795 41.5535 8.9581C41.5942 9.00981 41.6146 9.0678 41.6146 9.13675V14.2705C41.6146 14.7453 41.6444 15.1089 41.707 15.3596C41.7682 15.6103 41.8606 15.8266 41.9875 16.0068C42.1129 16.187 42.2728 16.3265 42.4655 16.4237C42.6583 16.5224 42.8855 16.571 43.1425 16.571C43.4684 16.571 43.796 16.4519 44.125 16.2152C44.4541 15.9786 44.8052 15.6307 45.1797 15.1763V9.13675C45.1797 9.06937 45.1985 9.00981 45.2361 8.9581C45.2737 8.90639 45.3411 8.86408 45.4398 8.83117C45.5385 8.79669 45.6686 8.77162 45.8316 8.75438C45.9946 8.73715 46.2014 8.72931 46.4521 8.72931C46.7029 8.72931 46.9097 8.73871 47.0727 8.75438C47.2357 8.77162 47.3642 8.79669 47.4598 8.83117C47.5554 8.86564 47.6228 8.90795 47.6635 8.9581C47.7042 9.00981 47.7246 9.0678 47.7246 9.13675V18.2211H47.7262Z" fill="#717274"/>
<path d="M55.5679 18.5674L54.4678 21.7862C54.4066 21.9554 54.2405 22.0777 53.9694 22.1529C53.6983 22.2281 53.3003 22.2657 52.7785 22.2657C52.5073 22.2657 52.2895 22.2532 52.1265 22.2297C51.9636 22.2062 51.8413 22.167 51.7599 22.1121C51.6784 22.0573 51.6345 21.9899 51.6282 21.9084C51.6219 21.8269 51.6423 21.7282 51.6893 21.6138L52.9007 18.569C52.8129 18.5282 52.733 18.4656 52.6609 18.3809C52.5888 18.2963 52.5371 18.2054 52.5026 18.1114L49.3763 9.76042C49.2886 9.52223 49.2447 9.34045 49.2447 9.21508C49.2447 9.08972 49.2854 8.99099 49.3669 8.92047C49.4484 8.84839 49.5863 8.79981 49.7791 8.77317C49.9718 8.74653 50.2288 8.73242 50.5485 8.73242C50.84 8.73242 51.0719 8.73712 51.2412 8.74809C51.4104 8.7575 51.5436 8.78413 51.6376 8.82488C51.7332 8.86562 51.8037 8.92831 51.8523 9.01293C51.8993 9.09755 51.9479 9.21822 51.9949 9.37492L54.134 15.4552H54.1653L56.121 9.25269C56.1618 9.07561 56.2151 8.95965 56.2793 8.90167C56.3436 8.84369 56.4501 8.80138 56.6006 8.77474C56.7494 8.7481 57.0111 8.73399 57.3857 8.73399C57.6771 8.73399 57.92 8.7481 58.1144 8.77474C58.3071 8.80138 58.4497 8.85309 58.5422 8.92674C58.6346 9.00196 58.6801 9.10225 58.6801 9.22762C58.6801 9.35299 58.6534 9.50029 58.5986 9.6711L55.5679 18.5674Z" fill="#717274"/>
<path d="M70.1119 18.2211C70.1119 18.2963 70.0978 18.359 70.0712 18.4092C70.0445 18.4593 69.9787 18.5032 69.8784 18.5361C69.7766 18.5706 69.6277 18.5941 69.4302 18.6082C69.2328 18.6223 68.9648 18.6285 68.6263 18.6285C68.3411 18.6285 68.1139 18.6223 67.9446 18.6082C67.7754 18.5941 67.6406 18.569 67.5419 18.5314C67.4432 18.4938 67.3742 18.4468 67.3335 18.3888C67.2927 18.3308 67.2583 18.2618 67.2316 18.1804L66.05 15.2374C65.9074 14.9052 65.768 14.609 65.6332 14.352C65.4969 14.0934 65.3464 13.8787 65.1803 13.7048C65.0142 13.5324 64.8215 13.4008 64.6052 13.313C64.3874 13.2253 64.1366 13.1814 63.8514 13.1814H63.0162V18.2023C63.0162 18.2697 62.9942 18.3308 62.9504 18.3856C62.9065 18.4405 62.8328 18.4844 62.731 18.5173C62.6291 18.5518 62.4928 18.5784 62.3235 18.5988C62.1543 18.6191 61.9365 18.6285 61.6716 18.6285C61.4131 18.6285 61.1984 18.6191 61.0244 18.5988C60.852 18.5784 60.7141 18.5518 60.6123 18.5173C60.5104 18.4828 60.4399 18.4389 60.3992 18.3856C60.3584 18.3308 60.338 18.2697 60.338 18.2023V6.23608C60.338 5.93677 60.4148 5.72208 60.5668 5.58888C60.7188 5.45568 60.9085 5.38986 61.1326 5.38986H64.5441C64.8904 5.38986 65.1756 5.39613 65.3997 5.41023C65.6238 5.42434 65.8275 5.44001 66.0109 5.46038C66.5405 5.5356 67.0169 5.6641 67.4416 5.84745C67.8663 6.03079 68.2251 6.27056 68.5213 6.56517C68.8159 6.86135 69.0416 7.21081 69.1983 7.61355C69.355 8.01785 69.4318 8.48171 69.4318 9.00354C69.4318 9.44546 69.3754 9.84663 69.2641 10.2102C69.1513 10.5738 68.9867 10.8981 68.7705 11.1834C68.5527 11.4686 68.2847 11.7162 67.965 11.9261C67.6453 12.1361 67.2833 12.3069 66.8759 12.4354C67.0733 12.531 67.2583 12.6454 67.4306 12.7818C67.6046 12.9181 67.7676 13.0827 67.9196 13.2754C68.0716 13.4697 68.2157 13.6891 68.3521 13.9367C68.4884 14.1843 68.62 14.4648 68.7485 14.7767L69.858 17.3733C69.9599 17.6319 70.0273 17.8199 70.0618 17.939C70.0947 18.0613 70.1119 18.1537 70.1119 18.2211ZM66.6596 9.27935C66.6596 8.84527 66.5609 8.47857 66.365 8.17926C66.1676 7.87995 65.8448 7.66996 65.3981 7.54773C65.2618 7.51325 65.1082 7.48661 64.9343 7.46624C64.7603 7.44587 64.5221 7.4349 64.2166 7.4349H63.0146V11.1724H64.3795C64.7603 11.1724 65.0926 11.1269 65.3778 11.0345C65.663 10.942 65.9012 10.8135 66.0908 10.6474C66.2804 10.4813 66.423 10.2823 66.5186 10.0519C66.6126 9.82313 66.6596 9.56456 66.6596 9.27935Z" fill="#717274"/>
<path d="M80.0111 13.4149C80.0111 13.7267 79.9422 13.9586 79.8027 14.1075C79.6632 14.2564 79.4721 14.3316 79.2276 14.3316H73.6974C73.6974 14.7187 73.7428 15.0697 73.8353 15.3863C73.9262 15.7028 74.0735 15.9708 74.2725 16.1902C74.4731 16.4111 74.7316 16.5788 75.0466 16.6948C75.3632 16.8107 75.7408 16.8671 76.1828 16.8671C76.6309 16.8671 77.0243 16.8342 77.3643 16.77C77.7044 16.7057 77.9974 16.6336 78.245 16.5553C78.4926 16.4769 78.6979 16.4064 78.8609 16.3422C79.0239 16.2779 79.1571 16.245 79.2574 16.245C79.3185 16.245 79.3702 16.2575 79.4094 16.2811C79.4501 16.3046 79.4846 16.3469 79.5112 16.408C79.5379 16.4691 79.5567 16.5553 79.5677 16.6681C79.5786 16.7809 79.5833 16.922 79.5833 17.0912C79.5833 17.2401 79.5802 17.3686 79.5739 17.4736C79.5677 17.5786 79.5567 17.6695 79.5426 17.7431C79.5285 17.8184 79.5081 17.881 79.4815 17.9312C79.4548 17.9813 79.4188 18.0315 79.3749 18.0785C79.331 18.1255 79.2104 18.1913 79.0129 18.2728C78.8155 18.3543 78.5647 18.4342 78.2591 18.5126C77.9536 18.5909 77.6041 18.6583 77.2108 18.7163C76.8174 18.7743 76.3959 18.8025 75.9477 18.8025C75.1391 18.8025 74.4323 18.7006 73.8243 18.4969C73.2163 18.2932 72.7086 17.9845 72.3011 17.5708C71.8937 17.157 71.5897 16.6336 71.3891 16.0021C71.1885 15.3706 71.0882 14.6309 71.0882 13.7816C71.0882 12.9729 71.1932 12.2458 71.4032 11.5971C71.6132 10.9483 71.9187 10.3982 72.3199 9.94692C72.7211 9.4956 73.2069 9.15085 73.782 8.91265C74.3556 8.67446 75.0028 8.55536 75.722 8.55536C76.4821 8.55536 77.1324 8.66819 77.6731 8.89071C78.2121 9.1148 78.6556 9.42509 79.0019 9.82312C79.3483 10.2196 79.6021 10.6913 79.7651 11.2335C79.9281 11.7773 80.0096 12.3681 80.0096 13.0059V13.4149H80.0111ZM77.5257 12.6815C77.5461 11.9622 77.4019 11.3965 77.0932 10.9859C76.7845 10.5753 76.3081 10.37 75.6625 10.37C75.3365 10.37 75.0529 10.4312 74.8116 10.5534C74.5702 10.6756 74.3697 10.8402 74.2114 11.047C74.0515 11.2539 73.9293 11.4983 73.8447 11.7804C73.7601 12.0625 73.7099 12.3634 73.6974 12.6815H77.5257Z" fill="#717274"/>
<path d="M90.7973 18.2211C90.7973 18.2885 90.777 18.348 90.7362 18.3997C90.6955 18.4515 90.6281 18.4938 90.5325 18.5267C90.4369 18.5612 90.3068 18.5862 90.1407 18.6035C89.9746 18.6207 89.7693 18.6285 89.5249 18.6285C89.2741 18.6285 89.0642 18.6191 88.898 18.6035C88.7319 18.5862 88.6003 18.5612 88.5063 18.5267C88.4107 18.4922 88.3433 18.4499 88.3026 18.3997C88.2618 18.3496 88.2414 18.29 88.2414 18.2211V13.0372C88.2414 12.5953 88.2085 12.249 88.1443 11.9982C88.08 11.7475 87.986 11.5312 87.8638 11.351C87.7415 11.1708 87.5833 11.0313 87.3905 10.9342C87.1978 10.8355 86.9705 10.7869 86.7135 10.7869C86.3876 10.7869 86.0585 10.906 85.7263 11.1442C85.3941 11.3824 85.0477 11.7287 84.6873 12.1831V18.2227C84.6873 18.29 84.6669 18.3496 84.6262 18.4013C84.5854 18.453 84.5165 18.4953 84.4178 18.5282C84.319 18.5627 84.189 18.5878 84.026 18.605C83.863 18.6223 83.6562 18.6301 83.4054 18.6301C83.1547 18.6301 82.9478 18.6207 82.7849 18.605C82.6219 18.5878 82.4918 18.5627 82.3931 18.5282C82.2944 18.4938 82.2254 18.4515 82.1847 18.4013C82.1439 18.3512 82.1236 18.2916 82.1236 18.2227V9.13674C82.1236 9.06936 82.1408 9.00981 82.1753 8.95809C82.2097 8.90638 82.2709 8.86407 82.3586 8.83116C82.4464 8.79669 82.5608 8.77161 82.7002 8.75438C82.8397 8.73714 83.0137 8.7293 83.2252 8.7293C83.443 8.7293 83.6217 8.73871 83.7643 8.75438C83.9069 8.77161 84.0166 8.79669 84.0949 8.83116C84.1733 8.86564 84.2281 8.90795 84.2626 8.95809C84.2971 9.00981 84.3128 9.06779 84.3128 9.13674V10.1851C84.8158 9.64134 85.3267 9.2339 85.8454 8.9628C86.3641 8.69169 86.9063 8.55536 87.4704 8.55536C88.0879 8.55536 88.6097 8.65722 89.0344 8.86094C89.4591 9.06466 89.8022 9.34203 90.0624 9.69149C90.3241 10.0409 90.5121 10.45 90.6281 10.9185C90.7441 11.3871 90.8005 11.9512 90.8005 12.6094V18.2211H90.7973Z" fill="#717274"/>
<path d="M98.4964 17.3263C98.4964 17.6256 98.4776 17.8544 98.44 18.0142C98.4024 18.1741 98.3538 18.2853 98.2927 18.3512C98.2316 18.4154 98.1407 18.4734 98.0231 18.5235C97.904 18.5737 97.7646 18.6191 97.6063 18.6552C97.4465 18.6928 97.2741 18.721 97.086 18.7414C96.8995 18.7617 96.7115 18.7727 96.5203 18.7727C96.011 18.7727 95.5691 18.7084 95.1961 18.5799C94.8232 18.4514 94.5145 18.2524 94.27 17.9845C94.0255 17.7165 93.8453 17.378 93.7294 16.9706C93.6134 16.5631 93.557 16.0805 93.557 15.5241V10.8699H92.4678C92.3393 10.8699 92.2406 10.79 92.1732 10.6302C92.1059 10.4703 92.0714 10.2039 92.0714 9.83095C92.0714 9.6335 92.0792 9.46738 92.0964 9.33105C92.1137 9.19471 92.1388 9.08815 92.1732 9.0098C92.2077 8.93145 92.25 8.87503 92.3002 8.84212C92.3519 8.80765 92.4099 8.79041 92.4788 8.79041H93.5585V6.76417C93.5585 6.69679 93.5773 6.63568 93.6149 6.58083C93.6526 6.52598 93.72 6.48053 93.8187 6.44292C93.9174 6.40532 94.049 6.37868 94.2151 6.36144C94.3813 6.3442 94.5865 6.33636 94.831 6.33636C95.0817 6.33636 95.2902 6.34577 95.4578 6.36144C95.6239 6.37868 95.754 6.40532 95.8496 6.44292C95.9452 6.48053 96.0126 6.52598 96.0533 6.58083C96.0941 6.63568 96.1144 6.69679 96.1144 6.76417V8.79041H98.0905C98.1579 8.79041 98.2175 8.80765 98.2692 8.84212C98.3209 8.8766 98.3632 8.93145 98.3961 9.0098C98.4306 9.08815 98.4557 9.19471 98.4729 9.33105C98.4901 9.46738 98.498 9.6335 98.498 9.83095C98.498 10.2039 98.4635 10.4703 98.3961 10.6302C98.3287 10.79 98.23 10.8699 98.1015 10.8699H96.116V15.1371C96.116 15.6323 96.1944 16.0052 96.3511 16.2528C96.5078 16.5004 96.7852 16.6242 97.1863 16.6242C97.3227 16.6242 97.4449 16.6133 97.553 16.5882C97.6611 16.5647 97.7583 16.5365 97.8429 16.5067C97.9276 16.4754 97.9996 16.4487 98.0561 16.4252C98.114 16.4017 98.1658 16.3892 98.2143 16.3892C98.2551 16.3892 98.2943 16.4017 98.3319 16.4252C98.3695 16.4487 98.3977 16.4957 98.418 16.5678C98.4384 16.6399 98.4572 16.7355 98.4745 16.8577C98.4886 16.98 98.4964 17.1351 98.4964 17.3263Z" fill="#717274"/>
<path d="M110.127 18.1709C110.127 18.2462 110.108 18.312 110.071 18.37C110.033 18.4279 109.963 18.475 109.858 18.5126C109.753 18.5502 109.609 18.5784 109.425 18.5988C109.242 18.6191 109.011 18.6285 108.733 18.6285C108.291 18.6285 107.974 18.6113 107.78 18.5784C107.587 18.5439 107.448 18.4938 107.363 18.4264C107.278 18.359 107.212 18.2775 107.164 18.1819L103.182 11.9293V18.1819C103.182 18.2571 103.162 18.3214 103.121 18.3747C103.08 18.4295 103.008 18.475 102.906 18.5126C102.804 18.5502 102.668 18.5784 102.499 18.5988C102.329 18.6191 102.112 18.6285 101.847 18.6285C101.588 18.6285 101.374 18.6191 101.2 18.5988C101.027 18.5784 100.889 18.5502 100.787 18.5126C100.686 18.475 100.612 18.4295 100.568 18.3747C100.524 18.3198 100.502 18.2556 100.502 18.1819V5.76752C100.502 5.6923 100.524 5.62805 100.568 5.57477C100.612 5.51992 100.686 5.47604 100.787 5.44313C100.889 5.40866 101.027 5.38202 101.2 5.36165C101.372 5.34128 101.588 5.3303 101.847 5.3303C102.112 5.3303 102.329 5.34128 102.499 5.36165C102.668 5.38202 102.804 5.40866 102.906 5.44313C103.008 5.47761 103.079 5.52149 103.121 5.57477C103.162 5.62962 103.182 5.69387 103.182 5.76752V11.3792L107.042 5.77692C107.089 5.68917 107.147 5.61551 107.214 5.55753C107.281 5.49955 107.371 5.4541 107.479 5.41963C107.587 5.38515 107.726 5.36164 107.896 5.34911C108.065 5.33657 108.283 5.32874 108.548 5.32874C108.819 5.32874 109.043 5.33971 109.22 5.36008C109.397 5.38045 109.536 5.40866 109.643 5.44627C109.748 5.48388 109.822 5.52932 109.862 5.58417C109.903 5.63902 109.924 5.70014 109.924 5.76752C109.924 5.88348 109.892 6.00258 109.831 6.12325C109.77 6.24548 109.654 6.43979 109.485 6.70463L105.87 11.4403L109.811 17.3984C109.96 17.6773 110.05 17.8622 110.08 17.9531C110.112 18.044 110.127 18.1161 110.127 18.1709Z" fill="#B72327"/>
<path d="M119.773 13.4149C119.773 13.7267 119.704 13.9586 119.564 14.1075C119.425 14.2564 119.234 14.3316 118.989 14.3316H113.459C113.459 14.7187 113.504 15.0697 113.597 15.3863C113.688 15.7028 113.835 15.9708 114.034 16.1902C114.235 16.4111 114.493 16.5788 114.808 16.6948C115.125 16.8107 115.502 16.8671 115.944 16.8671C116.392 16.8671 116.786 16.8342 117.126 16.77C117.466 16.7057 117.759 16.6336 118.007 16.5553C118.254 16.4769 118.459 16.4064 118.622 16.3422C118.785 16.2779 118.919 16.245 119.019 16.245C119.08 16.245 119.132 16.2575 119.171 16.2811C119.212 16.3046 119.246 16.3469 119.273 16.408C119.299 16.4691 119.318 16.5553 119.329 16.6681C119.34 16.7809 119.345 16.922 119.345 17.0912C119.345 17.2401 119.342 17.3686 119.335 17.4736C119.329 17.5786 119.318 17.6695 119.304 17.7431C119.29 17.8184 119.27 17.881 119.243 17.9312C119.216 17.9813 119.18 18.0315 119.136 18.0785C119.093 18.1255 118.972 18.1913 118.774 18.2728C118.577 18.3543 118.326 18.4342 118.021 18.5126C117.715 18.5909 117.366 18.6583 116.972 18.7163C116.579 18.7743 116.157 18.8025 115.709 18.8025C114.901 18.8025 114.194 18.7006 113.586 18.4969C112.978 18.2932 112.47 17.9845 112.063 17.5708C111.655 17.157 111.351 16.6336 111.151 16.0021C110.95 15.3706 110.85 14.6309 110.85 13.7816C110.85 12.9729 110.955 12.2458 111.165 11.5971C111.375 10.9483 111.68 10.3982 112.081 9.94692C112.483 9.4956 112.968 9.15085 113.543 8.91265C114.117 8.67446 114.764 8.55536 115.484 8.55536C116.244 8.55536 116.894 8.66819 117.435 8.89071C117.974 9.1148 118.417 9.42509 118.763 9.82312C119.11 10.2196 119.364 10.6913 119.527 11.2335C119.69 11.7773 119.771 12.3681 119.771 13.0059V13.4149H119.773ZM117.287 12.6815C117.308 11.9622 117.163 11.3965 116.855 10.9859C116.546 10.5753 116.07 10.37 115.424 10.37C115.098 10.37 114.814 10.4312 114.573 10.5534C114.332 10.6756 114.131 10.8402 113.971 11.047C113.811 11.2539 113.689 11.4983 113.605 11.7804C113.52 12.0625 113.47 12.3634 113.457 12.6815H117.287Z" fill="#B72327"/>
<path d="M130.557 18.2211C130.557 18.2885 130.537 18.348 130.496 18.3997C130.455 18.4515 130.388 18.4938 130.292 18.5267C130.197 18.5612 130.067 18.5862 129.901 18.6035C129.735 18.6207 129.529 18.6285 129.285 18.6285C129.034 18.6285 128.824 18.6191 128.658 18.6035C128.492 18.5862 128.36 18.5612 128.266 18.5267C128.171 18.4922 128.103 18.4499 128.062 18.3997C128.022 18.3496 128.001 18.29 128.001 18.2211V13.0372C128.001 12.5953 127.968 12.249 127.904 11.9982C127.84 11.7475 127.746 11.5312 127.624 11.351C127.501 11.1708 127.343 11.0313 127.15 10.9342C126.958 10.8355 126.73 10.7869 126.473 10.7869C126.147 10.7869 125.818 10.906 125.486 11.1442C125.154 11.3824 124.808 11.7287 124.447 12.1831V18.2227C124.447 18.29 124.427 18.3496 124.386 18.4013C124.345 18.453 124.276 18.4953 124.178 18.5282C124.079 18.5627 123.949 18.5878 123.786 18.605C123.623 18.6223 123.416 18.6301 123.165 18.6301C122.915 18.6301 122.708 18.6207 122.545 18.605C122.382 18.5878 122.252 18.5627 122.153 18.5282C122.054 18.4938 121.985 18.4515 121.945 18.4013C121.904 18.3512 121.883 18.2916 121.883 18.2227V9.13674C121.883 9.06936 121.901 9.00981 121.935 8.95809C121.97 8.90638 122.031 8.86407 122.119 8.83116C122.206 8.79669 122.321 8.77161 122.46 8.75438C122.6 8.73714 122.774 8.7293 122.985 8.7293C123.203 8.7293 123.382 8.73871 123.524 8.75438C123.667 8.77161 123.776 8.79669 123.855 8.83116C123.933 8.86564 123.988 8.90795 124.023 8.95809C124.057 9.00981 124.073 9.06779 124.073 9.13674V10.1851C124.576 9.64134 125.087 9.2339 125.605 8.9628C126.124 8.69169 126.666 8.55536 127.23 8.55536C127.848 8.55536 128.37 8.65722 128.794 8.86094C129.219 9.06466 129.562 9.34203 129.822 9.69149C130.084 10.0409 130.272 10.45 130.388 10.9185C130.504 11.3871 130.56 11.9512 130.56 12.6094V18.2211H130.557Z" fill="#B72327"/>
<path d="M137.962 18.5674L136.862 21.7862C136.8 21.9554 136.634 22.0777 136.363 22.1529C136.092 22.2281 135.694 22.2657 135.172 22.2657C134.901 22.2657 134.683 22.2532 134.52 22.2297C134.357 22.2062 134.235 22.167 134.154 22.1121C134.072 22.0573 134.028 21.9899 134.022 21.9084C134.016 21.8269 134.036 21.7282 134.083 21.6138L135.295 18.569C135.207 18.5282 135.127 18.4656 135.055 18.3809C134.983 18.2963 134.931 18.2054 134.896 18.1114L131.77 9.76042C131.682 9.52223 131.639 9.34045 131.639 9.21508C131.639 9.08972 131.679 8.99099 131.761 8.92047C131.842 8.84995 131.98 8.79981 132.173 8.77317C132.366 8.74653 132.623 8.73242 132.942 8.73242C133.234 8.73242 133.466 8.73712 133.635 8.74809C133.804 8.7575 133.937 8.78413 134.031 8.82488C134.127 8.86562 134.198 8.92831 134.246 9.01293C134.293 9.09755 134.342 9.21822 134.389 9.37492L136.528 15.4552H136.559L138.515 9.25269C138.556 9.07561 138.609 8.95965 138.673 8.90167C138.737 8.84369 138.844 8.80138 138.994 8.77474C139.143 8.7481 139.405 8.73399 139.779 8.73399C140.071 8.73399 140.314 8.7481 140.508 8.77474C140.701 8.80138 140.844 8.85309 140.936 8.92674C141.028 9.00196 141.074 9.10225 141.074 9.22762C141.074 9.35299 141.047 9.50029 140.992 9.6711L137.962 18.5674Z" fill="#B72327"/>
<path d="M150 18.2524C150 18.348 149.965 18.4217 149.898 18.4765C149.831 18.5314 149.723 18.5705 149.577 18.5941C149.431 18.6176 149.215 18.6301 148.93 18.6301C148.624 18.6301 148.402 18.6176 148.262 18.5941C148.123 18.5705 148.024 18.5314 147.967 18.4765C147.909 18.4217 147.881 18.348 147.881 18.2524V17.53C147.508 17.9312 147.082 18.243 146.603 18.4671C146.125 18.6912 145.593 18.8025 145.009 18.8025C144.526 18.8025 144.084 18.7398 143.68 18.6144C143.276 18.4891 142.926 18.3026 142.632 18.055C142.335 17.8074 142.107 17.5002 141.944 17.1335C141.781 16.7668 141.699 16.339 141.699 15.8501C141.699 15.3204 141.803 14.8613 142.009 14.4695C142.216 14.0793 142.525 13.7565 142.936 13.5026C143.346 13.2487 143.857 13.0591 144.468 12.9369C145.079 12.8147 145.789 12.7536 146.596 12.7536H147.482V12.2035C147.482 11.9183 147.453 11.6691 147.395 11.4544C147.338 11.2413 147.243 11.0627 147.11 10.9201C146.979 10.7775 146.802 10.6725 146.581 10.6035C146.36 10.5361 146.087 10.5017 145.761 10.5017C145.333 10.5017 144.951 10.5487 144.615 10.6443C144.279 10.7399 143.982 10.8448 143.724 10.9608C143.465 11.0768 143.251 11.1818 143.077 11.2758C142.904 11.3714 142.763 11.4184 142.654 11.4184C142.578 11.4184 142.512 11.3949 142.454 11.3463C142.397 11.2993 142.349 11.2304 142.312 11.1426C142.274 11.0548 142.246 10.9451 142.226 10.8166C142.205 10.6881 142.194 10.5455 142.194 10.3888C142.194 10.1788 142.212 10.0127 142.246 9.8905C142.281 9.76827 142.345 9.65857 142.439 9.55984C142.534 9.46112 142.701 9.35299 142.937 9.23389C143.175 9.1148 143.453 9.0051 143.772 8.90324C144.092 8.80138 144.44 8.71832 144.816 8.65407C145.192 8.58982 145.581 8.55692 145.982 8.55692C146.695 8.55692 147.305 8.62587 147.811 8.76534C148.317 8.90481 148.732 9.11793 149.058 9.40627C149.384 9.69462 149.622 10.066 149.771 10.522C149.92 10.9765 149.995 11.5171 149.995 12.1408V18.2524H150ZM147.485 14.3614H146.507C146.093 14.3614 145.739 14.3927 145.448 14.4538C145.156 14.5149 144.918 14.6058 144.735 14.7296C144.551 14.8519 144.416 14.9992 144.332 15.1731C144.247 15.3455 144.205 15.5445 144.205 15.7686C144.205 16.1494 144.326 16.4472 144.567 16.665C144.808 16.8828 145.142 16.9909 145.57 16.9909C145.93 16.9909 146.261 16.8985 146.563 16.7167C146.866 16.5333 147.173 16.2654 147.485 15.9128V14.3614Z" fill="#B72327"/>
</svg>
